Coordinates
version=1
nRows=12
nColumns=24
inDegrees=yes

Units are S.I. units (second, meters, Newtons, ...)
Angles are in degrees.

endheader
time	pelvis_tilt	pelvis_list	pelvis_rotation	pelvis_tx	pelvis_ty	pelvis_tz	hip_flexion_r	hip_adduction_r	hip_rotation_r	knee_angle_r	ankle_angle_r	subtalar_angle_r	mtp_angle_r	hip_flexion_l	hip_adduction_l	hip_rotation_l	knee_angle_l	ankle_angle_l	subtalar_angle_l	mtp_angle_l	lumbar_extension	lumbar_bending	lumbar_rotation
      4.28500000	    -11.48733020	      0.28855453	     -6.26003397	      0.17728504	     -0.00505287	      0.03739851	      3.89663415	      3.59171491	      6.36271049	     -5.46271560	      1.71793783	      2.36863284	     10.13057179	     34.97375626	     -8.04954474	    -19.08358195	    -40.25142372	     -7.68136716	      5.75762697	     18.07926917	      9.64123199	      2.10016991	      4.25948122
      4.29000000	    -11.46189932	      0.32793771	     -6.38155292	      0.18197443	     -0.00556198	      0.03750265	      3.58766542	      3.52200858	      6.43228421	     -5.46850086	      1.90314577	      2.46596579	     10.30140081	     35.11197064	     -7.94568150	    -19.28687759	    -39.09220515	     -7.66573365	      5.89666127	     17.84303112	      9.57962702	      2.03651298	      4.35667481
      4.29500000	    -11.44062766	      0.36233836	     -6.50617196	      0.18664438	     -0.00609296	      0.03759010	      3.29059450	      3.45609430	      6.49916337	     -5.48595657	      2.08810282	      2.57243291	     10.48796601	     35.24337783	     -7.84523737	    -19.49084368	    -37.91610260	     -7.69609961	      6.07499612	     17.62881648	      9.51505636	      1.98014413	      4.46652479
      4.30000000	    -11.43909725	      0.39073876	     -6.61846264	      0.19131791	     -0.00667176	      0.03767046	      3.01934211	      3.39938986	      6.55493397	     -5.51573944	      2.27563622	      2.66252883	     10.66586473	     35.38875027	     -7.74496816	    -19.68407808	    -36.72648573	     -7.77452994	      6.29578076	     17.45557582	      9.47172581	      1.92330030	      4.55568751
      4.30500000	    -11.42496935	      0.42142734	     -6.74213437	      0.19600697	     -0.00724789	      0.03773919	      2.73748432	      3.33551159	      6.60974692	     -5.54891944	      2.45634624	      2.77704584	     10.87293557	     35.49977594	     -7.64250121	    -19.89477653	    -35.51274022	     -7.88393822	      6.54379029	     17.31439690	      9.41238341	      1.86885016	      4.66986992
      4.31000000	    -11.47589574	      0.43328909	     -6.81002729	      0.20072582	     -0.00794191	      0.03773049	      2.52564325	      3.29900981	      6.64543885	     -5.59968063	      2.64963499	      2.81492330	     11.00252947	     35.68823261	     -7.52488010	    -20.02615185	    -34.29676952	     -8.02104854	      6.82559791	     17.21963148	      9.42489874	      1.82861622	      4.71839453
      4.31500000	    -11.45632502	      0.47798103	     -6.95472849	      0.20539100	     -0.00851181	      0.03780834	      2.25530010	      3.21672869	      6.70934516	     -5.65520210	      2.82608495	      2.97298679	     11.22419173	     35.76260688	     -7.42129949	    -20.29809372	    -33.04309739	     -8.25321988	      7.13815304	     17.18283106	      9.35338224	      1.75893232	      4.84738393
      4.32000000	    -11.48374827	      0.50506353	     -7.03635596	      0.21011996	     -0.00917207	      0.03781312	      2.02680135	      3.15632096	      6.74328753	     -5.71236804	      3.00239936	      3.06744244	     11.40830981	     35.88965404	     -7.29043625	    -20.46764875	    -31.78124485	     -8.50039257	      7.46961440	     17.19659362	      9.34057658	      1.69738845	      4.91293472
      4.32500000	    -11.51303704	      0.53911400	     -7.13185536	      0.21484411	     -0.00983537	      0.03780511	      1.81074382	      3.08605275	      6.78065380	     -5.78468739	      3.18233274	      3.18956823	     11.59709942	     36.00131523	     -7.15612751	    -20.65651254	    -30.49864973	     -8.78148995	      7.81209399	     17.28292800	      9.32393681	      1.63291465	      5.00056887
      4.33000000	    -11.55293845	      0.57862658	     -7.22470739	      0.21958425	     -0.01051770	      0.03779030	      1.60909599	      3.00951437	      6.80703210	     -5.86130192	      3.36846337	      3.32001835	     11.77818807	     36.11010035	     -7.01036633	    -20.82993131	    -29.19871769	     -9.08770508	      8.16786913	     17.43356279	      9.31955296	      1.56237981	      5.07967411
      4.33500000	    -11.53975359	      0.62189675	     -7.35360271	      0.22430194	     -0.01113573	      0.03777564	      1.36743917	      2.91524184	      6.81773281	     -5.95973035	      3.55641528	      3.56057877	     12.04490652	     36.12737427	     -6.86438351	    -21.01896944	    -27.84263571	     -9.44773719	      8.47533397	     17.84153548	      9.25021815	      1.49508484	      5.24601971
      4.34000000	    -11.63984050	      0.65564824	     -7.38796742	      0.22908824	     -0.01189801	      0.03769034	      1.22717661	      2.84646486	      6.82972314	     -6.04101468	      3.73111470	      3.64980463	     12.17376922	     36.29520450	     -6.68869709	    -21.13159158	    -26.54491622	     -9.75865974	      8.85577954	     17.96664206	      9.31362905	      1.42026826	      5.23724874
